<?xml version="1.0" encoding="UTF-8"?>
<svg id="Layer_1" data-name="Layer 1" xmlns="http://www.w3.org/2000/svg" version="1.1" viewBox="0 0 266 91">
  <defs>
    <style>
      .cls-1 {
        fill: #95c840;
      }

      .cls-1, .cls-2 {
        stroke-width: 0px;
      }

      .cls-2 {
        fill: #fff;
      }
    </style>
  </defs>
  <g>
    <path class="cls-2" d="M.5,38.8c0-6.7,5.6-12.3,12.3-12.3,3.1,0,5.8,1.3,8.3,3.7l-2.7,3.7c-1.6-1.6-3.6-2.6-5.6-2.6-3.8,0-7.4,3.4-7.4,7.5s3.8,7.5,7.4,7.5,4.1-1.2,5.6-2.7l2.7,3.9c-2.1,2.1-4.6,3.6-8.2,3.6-6.8,0-12.4-5.6-12.4-12.3Z"/>
    <path class="cls-2" d="M40,47.3h-9.5l-1.5,3.3h-5.1l11.3-24.3h.1l11.3,24.3h-5.2l-1.5-3.3ZM38.1,43.3l-2.9-6.3-2.9,6.3h5.8Z"/>
    <path class="cls-2" d="M47.6,38.8c0-6.7,5.6-12.3,12.3-12.3,3.1,0,5.8,1.3,8.3,3.7l-2.7,3.7c-1.6-1.6-3.6-2.6-5.6-2.6-3.8,0-7.4,3.4-7.4,7.5s3.8,7.5,7.4,7.5,4.1-1.2,5.6-2.7l2.7,3.9c-2.1,2.1-4.6,3.6-8.2,3.6-6.8,0-12.4-5.6-12.4-12.3Z"/>
    <path class="cls-2" d="M87.7,31.7h-5.8v19h-4.8v-19h-5.8v-4.7h16.4v4.7Z"/>
    <path class="cls-2" d="M91.9,41.9v-14.9h4.8v14.9c0,2.6,2,4.5,4.3,4.5s4.4-1.9,4.4-4.5v-14.9h4.8v14.9c0,5.4-4.1,9.3-9.1,9.3s-9.1-3.9-9.1-9.3Z"/>
    <path class="cls-2" d="M114.7,46.5l3.8-2.7c1,1.7,2.6,2.4,4.6,2.4s3.7-.9,3.7-2.2-2.8-3.1-5.3-4.3c-2.7-1.3-5.6-2.8-5.6-6.6s3.5-6.8,7.8-6.8,5.9,1.3,7,4.2l-3.5,2.5c-.7-1.4-2.1-2-3.4-2s-3.1,1-3.1,2.2,1.8,1.9,4.5,3.2c3.9,1.9,6.4,3.9,6.4,7.5s-3.5,7.1-8.6,7.1-6.7-1.6-8.3-4.6Z"/>
    <path class="cls-2" d="M1.5,58.8h8.3c4.6,0,8.3,3.6,8.3,8s-3.7,8-8.3,8h-3.6v7.7H1.5v-23.7ZM13.4,66.7c0-1.8-1.6-3.2-3.6-3.2h-3.6v6.6h3.6c2,0,3.6-1.5,3.6-3.3Z"/>
    <path class="cls-2" d="M33.3,79.1h-9.5l-1.5,3.3h-5.1l11.3-24.3h.1l11.3,24.3h-5.2l-1.5-3.3ZM31.4,75.1l-2.9-6.3-2.9,6.3h5.8Z"/>
    <path class="cls-2" d="M54.6,82.4l-7.5-11.2v11.2h-4.8v-23.7s7.7,0,7.7,0c4.4,0,8.1,3.4,8.1,7.7s-1.8,5.7-4.4,6.6l6.7,9.4h-5.8ZM47,69.4h3.1c1.6,0,3.1-1.3,3.1-3s-1.5-3-3.1-3h-3.1v6Z"/>
    <path class="cls-2" d="M78.9,63.5h-5.8v19h-4.8v-19h-5.8v-4.7h16.4v4.7Z"/>
    <path class="cls-2" d="M102.4,58.7v24.2h-.2l-14.1-13.7v13.3h-4.8v-24.2h.2l14,13.7v-13.3h4.8Z"/>
    <path class="cls-2" d="M113.1,63.4v4.6h8.2v4.7h-8.2v4.9h9.5v4.7h-14.3v-23.7h14.3v4.7h-9.5Z"/>
    <path class="cls-2" d="M140.3,82.4l-7.5-11.2v11.2h-4.8v-23.7s7.7,0,7.7,0c4.4,0,8.1,3.4,8.1,7.7s-1.8,5.7-4.4,6.6l6.7,9.4h-5.8ZM132.7,69.4h3.1c1.6,0,3.1-1.3,3.1-3s-1.5-3-3.1-3h-3.1v6Z"/>
    <path class="cls-2" d="M147.7,78.4l3.8-2.7c1,1.7,2.6,2.4,4.6,2.4s3.7-.9,3.7-2.2-2.8-3.1-5.3-4.3c-2.7-1.3-5.6-2.8-5.6-6.6s3.5-6.8,7.8-6.8,5.9,1.3,7,4.2l-3.5,2.5c-.7-1.4-2.1-2-3.4-2s-3.1,1-3.1,2.2,1.8,1.9,4.5,3.2c3.9,1.9,6.4,3.9,6.4,7.5s-3.5,7.1-8.6,7.1-6.7-1.6-8.3-4.6Z"/>
  </g>
  <g>
    <g>
      <path class="cls-1" d="M203,70.9c-3.7,5.8-8.8,10.7-14.8,14.1l3.4,5.7c6-3.4,11.2-8.1,15.2-13.6-1.4-2-2.7-4-3.8-6.2ZM167.7.3c-1.3,0-2.6,0-3.9.2l3.9,6.5c14.8,0,27.9,7.8,35.3,19.5,1.1-2.2,2.4-4.2,3.8-6.2C198,8.2,183.8.3,167.7.3Z"/>
      <path class="cls-1" d="M167.7,12.1c-7.2,0-13.9,2.1-19.5,5.7l3.4,5.7c4.7-3,10.2-4.7,16.1-4.7,16.5,0,29.9,13.4,29.9,29.9,0-5.7,1-11.2,2.8-16.3-6-12-18.4-20.3-32.7-20.3ZM197.6,48.7c0,11.2-6.2,21-15.4,26.1l3.4,5.7c6.4-3.6,11.6-9,14.8-15.6-1.8-5.1-2.8-10.6-2.8-16.3Z"/>
      <path class="cls-1" d="M167.7,23.9c-5,0-9.6,1.5-13.5,4l3.4,5.7c2.9-1.9,6.3-3.1,10.1-3.1,10,0,18.1,8.1,18.1,18.1s-3.9,13-9.7,16l3.4,5.7c7.7-4.2,12.9-12.4,12.9-21.7,0-13.6-11.1-24.7-24.7-24.7Z"/>
      <path class="cls-1" d="M167.7,35.8c-2.8,0-5.3.9-7.4,2.4l3.4,5.7c1.1-.9,2.5-1.4,4-1.4,3.5,0,6.3,2.8,6.3,6.3s-1.6,4.9-3.9,5.8l3.4,5.7c4.2-2.1,7.2-6.5,7.2-11.6s-5.8-12.9-12.9-12.9Z"/>
    </g>
    <g>
      <g>
        <path class="cls-1" d="M210.7,70.9c-1.1,2.2-2.4,4.2-3.8,6.2,4,5.5,9.2,10.2,15.2,13.6l3.4-5.7c-6-3.4-11.1-8.3-14.8-14.1ZM246,.3c-16.1,0-30.3,7.9-39.1,20,1.4,2,2.7,4,3.8,6.2,7.4-11.7,20.4-19.5,35.3-19.5s.7,0,1,0l3.8-6.4c-1.6-.2-3.2-.2-4.8-.2Z"/>
        <path class="cls-1" d="M213.3,32.4c-.7-2-1.6-4-2.6-5.9-1.1-2.2-2.4-4.2-3.8-6.2-1.4,2-2.7,4-3.8,6.2-1,1.9-1.9,3.9-2.6,5.9-1.8,5.1-2.8,10.6-2.8,16.3s1,11.2,2.8,16.3c.7,2,1.6,4,2.6,5.9,1.1,2.2,2.4,4.2,3.8,6.2,1.4-2,2.7-4,3.8-6.2,1-1.9,1.9-3.9,2.6-5.9,1.8-5.1,2.8-16.3,2.8-16.3s-1-11.2-2.8-16.3ZM206.8,63.1c-1.7-4.5-2.6-9.4-2.6-14.5s.9-9.9,2.6-14.5c1.7,4.5,2.6,9.4,2.6,14.5s-.9,10-2.6,14.5Z"/>
      </g>
      <path class="cls-1" d="M246,12.1c-14.3,0-26.7,8.3-32.7,20.3,1.8,5.1,2.8,10.6,2.8,16.3,0-16.5,13.4-29.9,29.9-29.9s11.5,1.7,16.1,4.7l3.4-5.7c-5.7-3.6-12.4-5.7-19.5-5.7ZM216.1,48.7c0,5.7-1,11.2-2.8,16.3,3.3,6.6,8.5,12,14.8,15.6l3.4-5.7c-9.2-5.1-15.4-14.9-15.4-26.1Z"/>
      <path class="cls-1" d="M246,23.9c-13.6,0-24.7,11.1-24.7,24.7s5.2,17.5,12.9,21.7l3.4-5.7c-5.7-3-9.7-9.1-9.7-16,0-10,8.1-18.1,18.1-18.1s7.2,1.1,10.1,3.1l3.4-5.7c-3.9-2.5-8.5-4-13.5-4Z"/>
      <path class="cls-1" d="M246,35.8c-7.1,0-12.9,5.8-12.9,12.9s2.9,9.4,7.1,11.6l3.4-5.7c-2.3-.9-3.9-3.2-3.9-5.8s2.8-6.3,6.3-6.3,2.9.5,4,1.4l3.4-5.7c-2.1-1.5-4.7-2.4-7.4-2.4Z"/>
    </g>
  </g>
</svg>
