<svg xmlns="http://www.w3.org/2000/svg" width="160" height="33" fill="none" viewBox="0 0 160 33"><path fill="#2a2829" fill-rule="evenodd" d="M81.24 18.108v7.958h-2.245v-8.15a3.83 3.83 0 0 0-1.19-2.799 3.91 3.91 0 0 0-5.587 0 3.83 3.83 0 0 0-1.19 2.798v8.151h-2.253v-7.958A6.3 6.3 0 0 1 70.55 13.6a6.03 6.03 0 0 1 4.473-1.818 5.97 5.97 0 0 1 4.44 1.818 6.26 6.26 0 0 1 1.776 4.507M94.542 7.363v6.492a6.95 6.95 0 0 0-4.758-2.06 6.75 6.75 0 0 0-5.203 2.102 7.405 7.405 0 0 0-.159 10.346 6.83 6.83 0 0 0 4.951 2.203h.26a6.8 6.8 0 0 0 2.68-.528 7.5 7.5 0 0 0 2.32-1.575 6.85 6.85 0 0 0 2.162-5.218V7.397zm-1.45 15.397a4.5 4.5 0 0 1-3.35 1.5h-.294a4.67 4.67 0 0 1-3.35-1.617 5.16 5.16 0 0 1-1.382-3.619 5.02 5.02 0 0 1 1.499-3.569 4.75 4.75 0 0 1 3.468-1.449h.067a4.56 4.56 0 0 1 3.41 1.458 5.14 5.14 0 0 1 1.449 3.543 5.03 5.03 0 0 1-1.516 3.753m22.929-10.71L111.9 22.824l-2.94-9.13h-1.877l-2.99 9.223-4.071-10.865h-2.38l5.312 14.014h2.404l2.613-8.477 2.79 8.477h2.429l5.261-14.014zm13.962 1.912a6.98 6.98 0 0 0-4.967-2.245 6.8 6.8 0 0 0-5.211 2.103 7.405 7.405 0 0 0-.159 10.345 6.85 6.85 0 0 0 4.951 2.212h.259a6.82 6.82 0 0 0 4.968-2.111 7.345 7.345 0 0 0 .159-10.312zm-1.675 8.729a4.53 4.53 0 0 1-3.351 1.491h-.285a4.62 4.62 0 0 1-3.401-1.617 5.08 5.08 0 0 1-1.357-3.61 5.03 5.03 0 0 1 1.491-3.569 4.74 4.74 0 0 1 3.477-1.457h.067a4.53 4.53 0 0 1 3.35 1.466 5.26 5.26 0 0 1 0 7.304zm8.461-10.379c-.529.28-.994.668-1.365 1.139v-1.4h-2.136v14.016h2.345v-8.378a3.9 3.9 0 0 1 .427-1.976 4.6 4.6 0 0 1 1.022-1.064 3.15 3.15 0 0 1 1.919-.645h.209V11.8h-.209a4.3 4.3 0 0 0-2.212.51M89.986 28.731h-2.37a.4.4 0 0 0-.26.11.34.34 0 0 0-.101.25c0 .097.035.19.1.26a.34.34 0 0 0 .26.109h.838v2.915a.35.35 0 0 0 .109.26.34.34 0 0 0 .251.1.343.343 0 0 0 .36-.36V29.46h.838a.35.35 0 0 0 .26-.109.38.38 0 0 0 .1-.26.34.34 0 0 0-.1-.25.37.37 0 0 0-.285-.11m3.35.729a.34.34 0 0 0 .251-.11.38.38 0 0 0 .1-.26.34.34 0 0 0-.1-.25.38.38 0 0 0-.251-.11H91.51a.35.35 0 0 0-.252.11.32.32 0 0 0-.108.25v3.284a.35.35 0 0 0 .108.26.34.34 0 0 0 .252.1h1.826a.36.36 0 1 0 0-.72h-1.458v-.921h1.24a.35.35 0 0 0 .26-.11.34.34 0 0 0 .1-.25.37.37 0 0 0-.36-.36h-1.24v-.914zm4.138 2.177a.34.34 0 0 0-.268.067 1.4 1.4 0 0 1-.896.293 1.3 1.3 0 0 1-.922-.385 1.23 1.23 0 0 1-.402-.922 1.3 1.3 0 0 1 .394-.938 1.41 1.41 0 0 1 1.826-.092.33.33 0 0 0 .268.067.35.35 0 0 0 .251-.142.38.38 0 0 0 .076-.268.4.4 0 0 0-.143-.252 2.1 2.1 0 0 0-1.315-.444 2.04 2.04 0 0 0-1.474.612 2 2 0 0 0 0 2.898 2.04 2.04 0 0 0 1.474.603c.476.006.94-.15 1.315-.444a.35.35 0 0 0 .143-.243.4.4 0 0 0-.076-.276.38.38 0 0 0-.251-.134m3.661-2.907a.37.37 0 0 0-.336.225.4.4 0 0 0-.024.136v1.265h-1.34V29.09a.32.32 0 0 0-.11-.252.36.36 0 0 0-.25-.108.37.37 0 0 0-.337.224.3.3 0 0 0-.024.136v3.283c0 .097.035.19.1.26a.36.36 0 0 0 .26.1.35.35 0 0 0 .252-.1.34.34 0 0 0 .108-.26v-1.281h1.341v1.281a.38.38 0 0 0 .1.26.36.36 0 0 0 .26.1.356.356 0 0 0 .36-.36V29.09a.31.31 0 0 0-.109-.252.36.36 0 0 0-.251-.108m3.979.162a.34.34 0 0 0-.109.251v2.128l-1.675-2.354a.37.37 0 0 0-.227-.142.44.44 0 0 0-.284.075.3.3 0 0 0-.126.293v3.234a.37.37 0 0 0 .1.26.36.36 0 0 0 .388.078.4.4 0 0 0 .115-.078.32.32 0 0 0 .109-.252v-2.153l1.675 2.338a.35.35 0 0 0 .268.125.38.38 0 0 0 .26-.1.37.37 0 0 0 .109-.26v-3.192a.37.37 0 0 0-.109-.25.36.36 0 0 0-.494 0m3.618-.272a1.85 1.85 0 0 0-1.391.603 2.164 2.164 0 0 0 0 2.907 1.88 1.88 0 0 0 1.407.603 1.84 1.84 0 0 0 1.366-.611 2.03 2.03 0 0 0 .578-1.441 2.08 2.08 0 0 0-.57-1.45 1.85 1.85 0 0 0-1.39-.61m1.214 2.061c.005.34-.121.67-.352.921a1.12 1.12 0 0 1-.837.394 1.15 1.15 0 0 1-.838-.385 1.3 1.3 0 0 1-.36-.93 1.3 1.3 0 0 1 .36-.93 1.145 1.145 0 0 1 1.675 0c.231.254.357.587.352.93m3.914 1.348h-1.449v-2.94a.36.36 0 0 0-.109-.251.4.4 0 0 0-.26-.11.36.36 0 0 0-.251.11.32.32 0 0 0-.109.25v3.284a.34.34 0 0 0 .109.26.35.35 0 0 0 .251.1h1.818a.362.362 0 0 0 .255-.615.36.36 0 0 0-.255-.105zm2.739-3.41a1.85 1.85 0 0 0-1.391.603 2.164 2.164 0 0 0 0 2.907 1.87 1.87 0 0 0 1.407.603 1.84 1.84 0 0 0 1.366-.611 2 2 0 0 0 .578-1.441 2.08 2.08 0 0 0-.57-1.45 1.85 1.85 0 0 0-1.39-.61m1.214 2.061c.005.34-.121.67-.351.921a1.12 1.12 0 0 1-.838.394 1.15 1.15 0 0 1-.838-.385 1.35 1.35 0 0 1-.36-.93 1.3 1.3 0 0 1 .36-.93 1.15 1.15 0 0 1 1.33-.285c.148.067.28.164.387.285.216.26.327.592.31.93m4.742-.326h-1.106a.33.33 0 0 0-.26.108.33.33 0 0 0-.109.26.37.37 0 0 0 .369.369h.745v.678a1.5 1.5 0 0 1-.712.193 1.37 1.37 0 0 1-.963-.385 1.25 1.25 0 0 1-.402-.93 1.23 1.23 0 0 1 .402-.93 1.28 1.28 0 0 1 .913-.385c.323-.01.639.09.897.284a.33.33 0 0 0 .276.076.34.34 0 0 0 .251-.134.4.4 0 0 0 .076-.277.36.36 0 0 0-.151-.251 2.14 2.14 0 0 0-2.79.16 2.03 2.03 0 0 0-.457 2.249 2.09 2.09 0 0 0 1.948 1.26 2.07 2.07 0 0 0 1.299-.444.34.34 0 0 0 .126-.159.4.4 0 0 0 0-.134v-1.206a.34.34 0 0 0-.109-.26.36.36 0 0 0-.243-.142m1.926-1.627a.37.37 0 0 0-.335.225.3.3 0 0 0-.025.136v3.283a.37.37 0 0 0 .101.26.36.36 0 0 0 .259.1.35.35 0 0 0 .252-.1.34.34 0 0 0 .109-.26v-3.283a.34.34 0 0 0-.026-.138.3.3 0 0 0-.083-.114.36.36 0 0 0-.252-.108m3.476.729a.34.34 0 0 0 .252-.11.36.36 0 0 0 .11-.255.35.35 0 0 0-.11-.256.38.38 0 0 0-.252-.108h-1.817a.37.37 0 0 0-.336.224.4.4 0 0 0-.025.136v3.283c0 .097.036.19.101.26a.35.35 0 0 0 .26.1h1.817a.34.34 0 0 0 .252-.108.4.4 0 0 0 .081-.114.36.36 0 0 0 0-.275.4.4 0 0 0-.081-.114.34.34 0 0 0-.252-.109H126.5v-.921h1.248a.32.32 0 0 0 .251-.11.34.34 0 0 0 .081-.387.34.34 0 0 0-.081-.115.34.34 0 0 0-.251-.109H126.5v-.913zm3.359 1.055a3.3 3.3 0 0 0-.787-.235c-.444-.084-.712-.21-.838-.369a.2.2 0 0 1-.042-.125.42.42 0 0 1 .218-.327.92.92 0 0 1 .57-.16.94.94 0 0 1 .402.085q.243.106.461.26a.35.35 0 0 0 .379 0 .3.3 0 0 0 .09-.093.36.36 0 0 0 .05-.26.34.34 0 0 0-.142-.217l-.335-.21a2.2 2.2 0 0 0-.394-.159 1.6 1.6 0 0 0-.511-.084 1.68 1.68 0 0 0-1.014.319 1 1 0 0 0-.452.837c.001.183.056.36.159.511.12.18.288.323.486.41q.37.166.771.235.94.177.938.553a.48.48 0 0 1-.235.377 1.1 1.1 0 0 1-.645.176 1.62 1.62 0 0 1-1.013-.41.27.27 0 0 0-.252-.076.32.32 0 0 0-.226.118.35.35 0 0 0-.075.25.3.3 0 0 0 .125.235c.41.346.923.546 1.458.57.388.004.766-.116 1.081-.343a1.06 1.06 0 0 0 .477-.897 1.085 1.085 0 0 0-.72-.98zm4.499-1.784h-.997a.37.37 0 0 0-.36.36v3.284c.002.097.041.19.109.26a.35.35 0 0 0 .251.1.38.38 0 0 0 .26-.1.37.37 0 0 0 .109-.26v-1.18h.628a1.23 1.23 0 0 0 .888-.37 1.257 1.257 0 0 0 0-1.759 1.23 1.23 0 0 0-.888-.335m0 1.768h-.595V29.46h.629a.5.5 0 0 1 .368.15.504.504 0 0 1 0 .738.49.49 0 0 1-.402.15m4.901-1.688a.355.355 0 0 0-.469.192l-1.039 2.463-1.039-2.463a.36.36 0 0 0-.326-.22.3.3 0 0 0-.134.027.31.31 0 0 0-.201.193.37.37 0 0 0 0 .268l1.365 3.25a.07.07 0 0 0 .05 0h.361l.067-.075 1.39-3.3a.37.37 0 0 0 0-.268.3.3 0 0 0-.025-.067m3.603-.08h-2.396a.35.35 0 0 0-.251.11.32.32 0 0 0-.109.25.34.34 0 0 0 .109.26.31.31 0 0 0 .251.11h.838v2.914a.34.34 0 0 0 .1.26.34.34 0 0 0 .26.1.34.34 0 0 0 .251-.1.38.38 0 0 0 .109-.26V29.46h.838a.32.32 0 0 0 .251-.109.36.36 0 0 0 .083-.397.3.3 0 0 0-.083-.114.35.35 0 0 0-.251-.109m1.515 3.105a.45.45 0 0 0-.335.142.48.48 0 0 0-.1.508.45.45 0 0 0 .255.255.48.48 0 0 0 .614-.253.5.5 0 0 0 .036-.183.46.46 0 0 0-.143-.327.44.44 0 0 0-.327-.142m4.784.197h-1.458v-2.94a.35.35 0 0 0-.219-.334.36.36 0 0 0-.282 0 .36.36 0 0 0-.219.333v3.284a.34.34 0 0 0 .1.26.35.35 0 0 0 .26.1h1.818a.36.36 0 0 0 .36-.36.36.36 0 0 0-.36-.36zm3.393-3.303h-2.379a.35.35 0 0 0-.251.11.32.32 0 0 0-.109.25.34.34 0 0 0 .109.26.31.31 0 0 0 .251.11h.838v2.915a.34.34 0 0 0 .1.26.34.34 0 0 0 .26.1.35.35 0 0 0 .251-.1.38.38 0 0 0 .109-.26v-2.916h.838a.35.35 0 0 0 .251-.108.36.36 0 0 0 .083-.398.3.3 0 0 0-.083-.113.35.35 0 0 0-.268-.11m2.151 0h-.653a.4.4 0 0 0-.26.11.35.35 0 0 0-.1.251v3.284a.34.34 0 0 0 .1.26.35.35 0 0 0 .26.1h.653a1.99 1.99 0 0 0 1.847-1.236c.099-.243.149-.504.147-.766a2 2 0 0 0-.578-1.418 2 2 0 0 0-1.416-.585m1.274 2.003a1.26 1.26 0 0 1-.369.904 1.3 1.3 0 0 1-.905.394h-.293v-2.513h.293a1.275 1.275 0 0 1 1.274 1.273zm2.422 1.245a.45.45 0 0 0-.336-.142.46.46 0 0 0-.326.142.44.44 0 0 0-.134.327.45.45 0 0 0 .134.335.477.477 0 0 0 .768-.152.46.46 0 0 0-.106-.51m-8.519-19.968h-2.807l-5.972 7.724V7.219h-2.321v18.806h2.396v-2.74l1.952-2.462 4.297 5.202h2.924l-5.814-6.953z" clip-rule="evenodd"/><path fill="#2a2829" fill-rule="evenodd" d="M159.924 21.745a4.12 4.12 0 0 0-3.058-3.82l-1.541-.527c-1.131-.377-1.675-.989-1.592-1.86a1.6 1.6 0 0 1 .511-1.164 1.73 1.73 0 0 1 1.173-.495c.454-.007.898.134 1.265.403a1.2 1.2 0 0 1 .519.996v.528h2.312v-.636a3.48 3.48 0 0 0-1.39-2.555 3.98 3.98 0 0 0-2.513-.947h-.201a4.2 4.2 0 0 0-2.874 1.257 3.62 3.62 0 0 0-1.13 2.856 3.66 3.66 0 0 0 2.772 3.61l1.592.503c1.24.402 1.843 1.114 1.826 2.178a2.12 2.12 0 0 1-.553 1.475 2.33 2.33 0 0 1-1.675.628h-.042a2.02 2.02 0 0 1-1.416-.662 1.9 1.9 0 0 1-.695-1.282v-.67h-2.329v.218a4.53 4.53 0 0 0 1.215 3.15 4.38 4.38 0 0 0 3.016 1.457h.318a4.46 4.46 0 0 0 3.133-1.298 3.99 3.99 0 0 0 1.357-3.35zM44.75 13.813a6.7 6.7 0 0 0-4.9-2.103h-.319a6.8 6.8 0 0 0-4.758 2.06V7.263h-2.22V18.99a7.314 7.314 0 0 0 7.17 7.397h.26a6.95 6.95 0 0 0 4.96-2.236 7.1 7.1 0 0 0 2.035-5.077 7.24 7.24 0 0 0-2.228-5.26m-1.407 8.737a4.76 4.76 0 0 1-3.41 1.625 4.66 4.66 0 0 1-3.66-1.491 5.03 5.03 0 0 1-1.466-3.77 5.03 5.03 0 0 1 1.466-3.535 4.62 4.62 0 0 1 3.45-1.458 4.8 4.8 0 0 1 3.536 1.475 5.08 5.08 0 0 1 1.491 3.535 5.15 5.15 0 0 1-1.407 3.619M53.88 14.03v-2.227h-.209a4.4 4.4 0 0 0-3.577 1.675v-1.424h-2.136v14.014h2.346v-8.376a3.9 3.9 0 0 1 .427-1.978 4.6 4.6 0 0 1 1.022-1.063 3.14 3.14 0 0 1 1.91-.645zm13.487 5.1v-.092a6.77 6.77 0 0 0-1.968-5.076 7.05 7.05 0 0 0-5.026-2.245 6.75 6.75 0 0 0-5.236 2.077 7.25 7.25 0 0 0-2.186 5.27 7.15 7.15 0 0 0 2.035 5.076 6.9 6.9 0 0 0 4.918 2.236h7.463zm-2.253 5.026h-4.691q-.226.014-.453 0a5.62 5.62 0 0 1-3.35-1.675 5.2 5.2 0 0 1 .117-7.154 4.88 4.88 0 0 1 3.552-1.466 4.6 4.6 0 0 1 3.35 1.458 4.83 4.83 0 0 1 1.467 3.535z" clip-rule="evenodd"/><path fill="#f07a1a" fill-rule="evenodd" d="M63.59 18.952v3.653h-3.56a3.86 3.86 0 0 1-2.355-1.131 3.48 3.48 0 0 1-.938-2.513 3.35 3.35 0 0 1 1.03-2.455 3.35 3.35 0 0 1 2.455-1.013 3.2 3.2 0 0 1 2.354 1.005 3.4 3.4 0 0 1 1.013 2.454M15.715 11.35a3.436 3.436 0 1 0 0-6.86H4.071L0 0h15.916a7.883 7.883 0 0 1 7.891 7.883v.075a7.883 7.883 0 0 1-7.882 7.883H0l4.071-4.482z" clip-rule="evenodd"/><path fill="#000" fill-rule="evenodd" d="M23.807 19.246v.075a7.883 7.883 0 0 1-7.882 7.883H0l4.071-4.49h11.644a3.426 3.426 0 0 0 2.43-5.864 4 4 0 0 0-.344-.301 8.1 8.1 0 0 0 4.189-2.287 7.9 7.9 0 0 1 1.817 4.984" clip-rule="evenodd"/></svg>